<?xml version="1.0" encoding="UTF-8"?>
<svg width="146px" height="40px" viewBox="0 0 146 40" version="1.1" xmlns="http://www.w3.org/2000/svg" xmlns:xlink="http://www.w3.org/1999/xlink">
    <!-- Generator: Sketch 44.1 (41455) - http://www.bohemiancoding.com/sketch -->
    <title>Logo White</title>
    <desc>Created with Sketch.</desc>
    <defs></defs>
    <g id="Assets" stroke="none" stroke-width="1" fill="none" fill-rule="evenodd">
        <g id="Elements" transform="translate(-2746.000000, -359.000000)" fill="#FFFFFF">
            <g id="Logo" transform="translate(2746.000000, 359.000000)">
                <path d="M2.70800781,14.8364258 C2.70800781,14.9116215 2.77783133,14.9492188 2.91748047,14.9492188 C3.01416064,14.9492188 3.4519004,14.8847663 4.23071289,14.7558594 C5.00952538,14.6269525 5.71581714,14.557129 6.34960938,14.5463867 C5.64062146,14.7397471 5.03100841,14.93579 4.52075195,15.1345215 C4.0104955,15.3332529 3.48413357,15.5534656 2.94165039,15.795166 C2.39916721,16.0368664 2.00976681,16.1979976 1.7734375,16.2785645 C1.53710819,16.3591313 1.33300867,16.3994141 1.16113281,16.3994141 C0.613278511,16.3994141 0.339355469,16.0449254 0.339355469,15.3359375 C0.339355469,13.5097565 0.801264912,12.2260779 1.72509766,11.4848633 C2.1010761,11.1840805 2.7053181,10.8269064 3.5378418,10.4133301 C4.37036549,9.99975379 5.3102975,9.60766787 6.35766602,9.23706055 C7.40503453,8.86645323 8.55712262,8.54687634 9.81396484,8.27832031 C11.0708071,8.00976428 12.3115173,7.87548828 13.5361328,7.87548828 C14.792975,7.87548828 15.9477486,8.05810364 17.0004883,8.42333984 C18.0532279,8.78857604 18.9340785,9.30151037 19.6430664,9.9621582 C20.3520543,10.622806 20.8972149,11.4311476 21.2785645,12.387207 C21.659914,13.3432665 21.8505859,14.4174745 21.8505859,15.6098633 C21.8505859,17.425302 21.3269095,19.1870032 20.279541,20.8950195 C19.2321725,22.6030359 17.8357021,24.1096126 16.0900879,25.4147949 C14.3444737,26.7199772 12.3759875,27.7539024 10.1845703,28.5166016 C7.99315311,29.2793007 5.83399501,29.6606445 3.70703125,29.6606445 C3.30956833,29.6606445 2.99536248,29.6176762 2.7644043,29.5317383 C2.53344611,29.4458004 2.36962939,29.2766126 2.27294922,29.0241699 C2.17626905,28.7717273 2.12792969,28.39844 2.12792969,27.9042969 C2.12792969,27.2919891 2.17626905,26.7924824 2.27294922,26.4057617 C2.36962939,26.019041 2.53076059,25.5732447 2.75634766,25.0683594 C4.30323039,21.6415844 6.99412145,17.3286393 10.8291016,12.1293945 C10.0556602,12.2153325 9.20703587,12.3791492 8.28320312,12.6208496 C7.35937038,12.86255 6.48389085,13.1284165 5.65673828,13.418457 C4.82958571,13.7084975 4.1313505,13.9877916 3.56201172,14.2563477 C2.99267293,14.5249037 2.70800781,14.7182611 2.70800781,14.8364258 Z M11.2963867,12.0327148 C11.2963867,12.0541993 11.3178709,12.1750477 11.3608398,12.3952637 C11.4038088,12.6154796 11.425293,12.8061515 11.425293,12.9672852 C11.425293,13.2143567 11.2990735,13.5607888 11.0466309,14.0065918 C10.7941882,14.4523948 10.297367,15.2446232 9.55615234,16.3833008 C8.8149377,17.5219783 8.18115498,18.5209918 7.65478516,19.3803711 C7.12841534,20.2397504 6.50537469,21.3461846 5.78564453,22.699707 C5.56005747,23.1293967 5.4042973,23.4194328 5.31835938,23.5698242 C5.23242145,23.7202156 5.09545992,23.9672834 4.9074707,24.3110352 C4.71948148,24.6547869 4.58251996,24.9501941 4.49658203,25.1972656 C4.4106441,25.4443372 4.36767578,25.6323236 4.36767578,25.7612305 C4.36767578,26.0405287 4.52075042,26.2365717 4.8269043,26.3493652 C5.13305817,26.4621588 5.57079793,26.5185547 6.14013672,26.5185547 C7.60108152,26.5185547 9.14794105,26.2526882 10.7807617,25.7209473 C12.4135824,25.1892063 13.9470143,24.4506883 15.3811035,23.5053711 C16.8151927,22.5600539 17.9619098,21.4912169 18.8212891,20.2988281 C19.6806684,19.1064394 20.1103516,17.8603581 20.1103516,16.5605469 C20.1103516,15.0781176 19.5678765,13.9367716 18.4829102,13.1364746 C17.3979438,12.3361776 15.818858,11.9360352 13.7456055,11.9360352 C12.8754839,11.9360352 12.0590858,11.9682614 11.2963867,12.0327148 Z M24.4609375,21.0400391 C26.0937582,19.5576098 27.678215,18.4565466 29.2143555,17.7368164 C30.750496,17.0170862 31.9374958,16.6572266 32.7753906,16.6572266 C33.0009777,16.6572266 33.2104483,16.7512198 33.4038086,16.939209 C33.5971689,17.1271982 33.7502436,17.3447253 33.8630371,17.5917969 C33.9758306,17.8388684 34.0322266,18.0214838 34.0322266,18.1396484 C34.0322266,18.3330088 33.957032,18.4753413 33.8066406,18.5666504 C33.6562492,18.6579594 33.3930683,18.7680658 33.0170898,18.8969727 C33.0922855,19.0688485 33.1889643,19.2890612 33.3071289,19.5576172 C33.4252936,19.8261732 33.5166012,20.0437003 33.5810547,20.2102051 C33.6455081,20.3767098 33.6777344,20.5244134 33.6777344,20.6533203 C33.6777344,20.9111341 33.4172389,21.3918422 32.8962402,22.095459 C32.3752415,22.7990758 32.0100108,23.3173811 31.8005371,23.6503906 C31.5910634,23.9834001 31.4863281,24.3915991 31.4863281,24.875 C31.4863281,25.6699258 31.8515588,26.0673828 32.5820312,26.0673828 C33.3339881,26.0673828 34.5102459,25.3637766 36.1108398,23.956543 L36.1108398,24.9394531 C33.3930528,27.9580229 31.4487363,29.4672852 30.277832,29.4672852 C29.8588846,29.4672852 29.5607919,29.3303236 29.3835449,29.0563965 C29.2062979,28.7824693 29.1176758,28.3769558 29.1176758,27.8398438 C29.1176758,26.9912067 29.4238251,25.7612385 30.0361328,24.1499023 C28.4677656,25.8901454 27.3022499,27.1281701 26.5395508,27.8640137 C25.7768517,28.5998572 25.14844,28.9677734 24.6542969,28.9677734 C24.4179676,28.9677734 24.1225604,28.7636739 23.7680664,28.3554688 C23.4135724,27.9472636 23.0993666,27.4182161 22.8254395,26.7683105 C22.5515123,26.118405 22.4145508,25.4443394 22.4145508,24.7460938 C22.4145508,24.2412084 22.4628901,23.8195818 22.5595703,23.4812012 C22.6562505,23.1428206 22.8442369,22.7963885 23.1235352,22.4418945 C23.4028334,22.0874006 23.8486298,21.6201201 24.4609375,21.0400391 Z M32.1791992,19.2675781 C29.3862165,20.5459048 27.3962462,21.6308549 26.2092285,22.5224609 C25.0222109,23.414067 24.4287109,24.3325148 24.4287109,25.277832 C24.4287109,25.6215838 24.4877924,25.9035634 24.605957,26.1237793 C24.7241217,26.3439952 24.8852529,26.4541016 25.0893555,26.4541016 C25.2075201,26.4541016 25.4169907,26.378907 25.7177734,26.2285156 C26.8457088,25.5624967 27.8769485,24.6950737 28.8115234,23.6262207 C29.7460984,22.5573677 30.8686458,21.1045014 32.1791992,19.2675781 Z M38.0766602,23.956543 L37.7866211,25.3100586 C37.7436521,25.4819345 37.722168,25.6752919 37.722168,25.8901367 C37.722168,26.4702177 37.9638648,26.7602539 38.4472656,26.7602539 C38.909182,26.7602539 40.0317294,25.8579192 41.8149414,24.0532227 C41.8256836,23.354977 42.0861791,22.549321 42.5964355,21.6362305 C43.106692,20.72314 43.6706512,19.922855 44.2883301,19.2353516 C44.9060089,18.5478481 45.3652329,18.2041016 45.6660156,18.2041016 C46.1386742,18.2041016 46.375,18.5156219 46.375,19.1386719 C46.375,19.5146503 46.2836923,19.9738742 46.1010742,20.5163574 C45.9184561,21.0588406 45.6499041,21.644284 45.2954102,22.2727051 C44.9409162,22.9011262 44.505862,23.5483365 43.9902344,24.2143555 C44.2587904,24.6977563 44.5327134,24.9394531 44.8120117,24.9394531 C45.048341,24.9394531 45.3088365,24.856202 45.5935059,24.6896973 C45.8781753,24.5231925 46.2353494,24.2680681 46.6650391,23.9243164 L46.6650391,25.0039063 C46.0634736,25.4765649 45.5881365,25.7988273 45.2390137,25.9707031 C44.8898908,26.142579 44.441409,26.2285156 43.8935547,26.2285156 C43.6787099,26.2285156 43.291995,26.0834975 42.7333984,25.793457 C41.6376898,26.9536191 40.7460972,27.821042 40.0585938,28.395752 C39.3710903,28.9704619 38.8125021,29.2578125 38.3828125,29.2578125 C37.6415979,29.2578125 37.0105007,28.8147017 36.489502,27.9284668 C35.9685033,27.0422319 35.7080078,26.0673881 35.7080078,25.0039063 C35.7080078,23.5751882 36.5136638,21.8618264 38.125,19.8637695 C38.6084009,19.262204 38.9978013,18.8513195 39.2932129,18.6311035 C39.5886245,18.4108876 39.9243145,18.3007813 40.300293,18.3007813 C40.6225602,18.3007813 40.9287095,18.3598627 41.21875,18.4780273 C41.5087905,18.596192 41.6538086,18.735839 41.6538086,18.8969727 C41.6538086,19.4340847 41.2939489,20.2209421 40.5742188,21.2575684 C39.8544886,22.2941946 39.0219774,23.1938438 38.0766602,23.956543 Z M53.2392578,16.7216797 C52.9707018,16.7216797 52.7155774,16.6196299 52.473877,16.4155273 C52.2321765,16.2114248 52.1113281,15.9536148 52.1113281,15.6420898 C52.1113281,15.1694312 52.3369118,14.6430693 52.7880859,14.0629883 C53.2392601,13.4829073 53.7065406,13.1928711 54.1899414,13.1928711 C54.5122086,13.1928711 54.7807606,13.2922353 54.9956055,13.4909668 C55.2104503,13.6896983 55.3178711,13.9770489 55.3178711,14.3530273 C55.3178711,14.8149437 55.0976585,15.3251925 54.6572266,15.8837891 C54.2167947,16.4423856 53.7441431,16.7216797 53.2392578,16.7216797 Z M54.3349609,23.9243164 L54.3349609,25.1005859 C53.2929635,26.4433661 52.3208053,27.4558071 51.418457,28.1379395 C50.5161088,28.8200718 49.74805,29.1611328 49.1142578,29.1611328 C48.233394,29.1611328 47.5781271,28.6992234 47.1484375,27.7753906 C46.7187479,26.8515579 46.5039062,25.8418024 46.5039062,24.7460938 C46.5039062,24.3271463 46.5468746,23.9270039 46.6328125,23.5456543 C46.7187504,23.1643047 46.8208002,22.8500989 46.9389648,22.6030273 C47.0571295,22.3559558 47.2773421,21.9692409 47.5996094,21.4428711 C49.1250076,19.0688358 50.521478,17.8818359 51.7890625,17.8818359 C52.4443392,17.8818359 52.7719727,18.1342748 52.7719727,18.6391602 C52.7719727,18.9829119 52.5598166,19.5200159 52.135498,20.2504883 C51.7111795,20.9809607 51.3325212,21.5019516 50.9995117,21.8134766 C50.0649367,22.7158248 49.4553237,23.3442365 49.1706543,23.6987305 C48.8859849,24.0532244 48.7436523,24.4560524 48.7436523,24.9072266 C48.7436523,25.2939472 48.8886704,25.6162096 49.1787109,25.8740234 C49.4687515,26.1318372 49.8447243,26.2607422 50.3066406,26.2607422 C50.811526,26.2607422 51.3674286,26.0754413 51.9743652,25.704834 C52.5813019,25.3342267 53.3681592,24.7407267 54.3349609,23.9243164 Z M61.5537109,23.956543 C60.6083937,25.0307671 59.7624549,25.9438439 59.0158691,26.6958008 C58.2692834,27.4477577 57.6623559,28.0090314 57.1950684,28.3796387 C56.7277809,28.750246 56.408204,28.9355469 56.2363281,28.9355469 C55.9570299,28.9355469 55.642824,28.7099632 55.2937012,28.2587891 C54.9445783,27.8076149 54.6464856,27.2329136 54.3994141,26.534668 C54.1523425,25.8364223 54.0288086,25.127445 54.0288086,24.4077148 C54.0288086,23.3657174 54.5336864,22.3156791 55.543457,21.2575684 C56.5532277,20.1994576 57.7026303,19.3212926 58.9916992,18.6230469 C60.2807682,17.9248012 61.2475554,17.5756836 61.8920898,17.5756836 C62.4184597,17.5756836 62.9340795,17.9086881 63.4389648,18.574707 C64.2661174,16.8452062 65.0529748,15.3090887 65.7995605,13.9663086 C66.5461463,12.6235284 67.1718725,11.624515 67.6767578,10.9692383 C68.1816431,10.3139616 68.5415028,9.98632813 68.7563477,9.98632813 C68.992677,9.98632813 69.2102041,10.1018055 69.4089355,10.3327637 C69.607667,10.5637219 69.7070312,10.8242173 69.7070312,11.1142578 C69.7070312,11.6728544 69.2988322,12.631585 68.4824219,13.9904785 C67.6660115,15.349372 66.8603555,16.6733334 66.0654297,17.9624023 C65.2705038,19.2514713 64.5883818,20.5217223 64.019043,21.7731934 C63.4497042,23.0246645 63.1650391,24.1821236 63.1650391,25.2456055 C63.1650391,26.2124072 63.4765594,26.6958008 64.0996094,26.6958008 C64.4755878,26.6958008 64.9482393,26.4836447 65.5175781,26.0593262 C66.0869169,25.6350076 66.897944,24.9233448 67.9506836,23.9243164 L67.9506836,25.1005859 C65.6303595,28.0976712 63.8418032,29.5961914 62.5849609,29.5961914 C62.0800756,29.5961914 61.7175304,29.402834 61.4973145,29.0161133 C61.2770985,28.6293926 61.1669922,28.0546913 61.1669922,27.2919922 C61.1669922,26.260737 61.2958971,25.1489317 61.5537109,23.956543 Z M62.7460938,20.0249023 C61.7900343,20.3471696 60.6674869,20.8654749 59.378418,21.579834 C58.089349,22.294193 57.3105482,22.7856432 57.0419922,23.0541992 C56.8056629,23.269044 56.5961923,23.671872 56.4135742,24.2626953 C56.2309561,24.8535186 56.1396484,25.2993149 56.1396484,25.6000977 C56.1396484,25.7827158 56.1933588,25.9331049 56.3007812,26.0512695 C56.4082037,26.1694342 56.5424797,26.2285156 56.7036133,26.2285156 C56.8540047,26.2285156 57.0258779,26.1640631 57.2192383,26.0351563 C57.4125986,25.9062494 57.7214334,25.6538105 58.145752,25.277832 C58.5700705,24.9018536 58.846679,24.6601568 58.9755859,24.5527344 C59.158204,24.3916008 59.5637176,24.0451687 60.1921387,23.5134277 C60.8205598,22.9816868 61.2797837,22.5654312 61.5698242,22.2646484 C61.8598647,21.9638657 62.1069326,21.6281757 62.3110352,21.2575684 C62.5151377,20.886961 62.6601558,20.4760765 62.7460938,20.0249023 Z M93.8930664,24.3432617 C93.6245104,23.8491186 93.2216824,23.4033223 92.6845703,23.0058594 C92.1474583,22.6083965 91.5432162,22.2888196 90.8718262,22.0471191 C90.2004361,21.8054187 89.4995154,21.6254889 88.769043,21.5073242 C86.5991102,21.185057 84.5742281,20.4814507 82.6943359,19.3964844 C82.5332023,19.3105464 82.361329,19.1279311 82.1787109,18.8486328 C81.9960928,18.5693345 81.9047852,18.3007825 81.9047852,18.0429688 C81.9047852,17.0976515 82.0632308,16.149663 82.380127,15.1989746 C82.6970231,14.2482863 83.1025366,13.5043972 83.5966797,12.9672852 C84.3916055,12.0756791 85.8229877,11.2968783 87.8908691,10.6308594 C89.9587506,9.96484042 92.2870964,9.63183594 94.8759766,9.63183594 C96.4228593,9.63183594 97.6179157,9.74999882 98.4611816,9.98632813 C99.3044476,10.2226574 99.7260742,10.5878882 99.7260742,11.0820313 C99.7260742,11.8876993 99.6159679,12.51074 99.395752,12.9511719 C99.175536,13.3916038 98.9392102,13.6843254 98.6867676,13.8293457 C98.4343249,13.974366 97.9912141,14.1704089 97.3574219,14.4174805 C96.6806607,14.6538098 96.0925318,14.9008776 95.5930176,15.1586914 C95.0935034,15.4165052 94.6665057,15.663573 94.3120117,15.8999023 C93.9575178,16.1362317 93.7373051,16.2543945 93.6513672,16.2543945 C93.5439448,16.2543945 93.4902344,16.2114262 93.4902344,16.1254883 C93.4902344,15.9428702 93.6809063,15.6662616 94.0622559,15.2956543 C94.4436054,14.925047 94.9135714,14.6000991 95.472168,14.3208008 C96.0629912,14.0092758 96.3583984,13.8105473 96.3583984,13.7246094 C96.3583984,13.5849602 96.030765,13.5151367 95.3754883,13.5151367 C93.3881737,13.5151367 91.551278,13.692381 89.8647461,14.046875 C88.1782142,14.401369 86.8488818,14.8686494 85.876709,15.4487305 C84.9045362,16.0288115 84.418457,16.6196259 84.418457,17.2211914 C84.418457,17.5971698 84.619871,17.8630363 85.0227051,18.0187988 C85.4255391,18.1745613 86.3144462,18.4350568 87.6894531,18.800293 C89.06446,19.1655292 90.2944282,19.5844703 91.3793945,20.0571289 C92.9370195,20.7231479 94.0917931,21.416012 94.84375,22.1357422 C95.5957069,22.8554723 95.9716797,23.6611284 95.9716797,24.5527344 C95.9716797,25.1650421 95.8239761,25.7800262 95.5285645,26.3977051 C95.2331528,27.0153839 94.8007841,27.5820287 94.2314453,28.0976563 C93.6621065,28.6132838 93.0068396,29.037596 92.265625,29.3706055 C91.6318328,29.6391615 90.8342333,29.8916004 89.8728027,30.1279297 C88.9113721,30.364259 87.8693904,30.5495599 86.7468262,30.6838379 C85.624262,30.8181159 84.5527395,30.8852539 83.5322266,30.8852539 C81.6523344,30.8852539 80.1403866,30.7080096 78.9963379,30.3535156 C77.8522892,29.9990217 77.2802734,29.4619177 77.2802734,28.7421875 C77.2802734,28.4199203 77.4736309,27.917728 77.8603516,27.2355957 C78.2470722,26.5534634 78.7036106,26.0942395 79.2299805,25.8579102 C79.6918968,25.6752921 80.1376932,25.5705568 80.5673828,25.5437012 C80.9970725,25.5168456 81.2119141,25.5678704 81.2119141,25.6967773 C81.2119141,25.7290041 81.1958009,25.7612303 81.1635742,25.793457 C81.1313475,25.8256838 81.0937502,25.852539 81.0507812,25.8740234 L80.921875,25.9384766 C80.7070302,26.0244145 80.5324714,26.0915525 80.3981934,26.1398926 C80.2639153,26.1882327 80.1564945,26.236572 80.0759277,26.2849121 C79.9953609,26.3332522 79.9550781,26.4003902 79.9550781,26.4863281 C79.9550781,26.7119152 81.0668834,26.824707 83.2905273,26.824707 C85.2241308,26.824707 86.8085876,26.7548835 88.0439453,26.6152344 C89.2793031,26.4755852 90.3696242,26.2231464 91.3149414,25.8579102 C92.2602586,25.492674 93.119625,24.9877962 93.8930664,24.3432617 Z M105.897461,26.1318359 C107.37989,24.8212825 108.652827,23.6799365 109.716309,22.7077637 C110.77979,21.7355908 111.614987,20.9702176 112.221924,20.4116211 C112.82886,19.8530246 113.363279,19.380373 113.825195,18.9936523 C114.287112,18.6069317 114.582519,18.4135742 114.711426,18.4135742 C114.958497,18.402832 115.194823,18.6579564 115.42041,19.1789551 C115.645997,19.6999538 115.758789,20.1162094 115.758789,20.4277344 C115.758789,20.631837 115.417728,21.112545 114.735596,21.869873 C114.053463,22.6272011 113.543215,23.2314431 113.204834,23.6826172 C112.866453,24.1337913 112.697266,24.6064428 112.697266,25.1005859 C112.697266,25.3906265 112.793944,25.6242667 112.987305,25.8015137 C113.180665,25.9787607 113.41162,26.0673828 113.680176,26.0673828 C113.991701,26.0673828 114.364988,25.9062516 114.800049,25.5839844 C115.23511,25.2617171 115.919917,24.6870159 116.854492,23.8598633 L116.854492,25.0039063 C115.919917,25.88477 115.071293,26.6447722 114.308594,27.2839355 C113.545895,27.9230989 112.882571,28.4011215 112.318604,28.7180176 C111.754636,29.0349137 111.28467,29.1933594 110.908691,29.1933594 C110.575682,29.1933594 110.296388,29.0671399 110.070801,28.8146973 C109.845214,28.5622546 109.732422,28.2480488 109.732422,27.8720703 C109.732422,27.5068341 109.796874,27.1362323 109.925781,26.7602539 C110.054688,26.3842755 110.253417,25.9384791 110.521973,25.4228516 C110.790529,24.907224 111.145017,24.2868689 111.585449,23.5617676 C112.025881,22.8366663 112.428709,22.1733429 112.793945,21.5717773 C111.698237,22.4633834 110.726078,23.3227498 109.877441,24.1499023 C109.028804,24.9770549 108.33594,25.6994598 107.798828,26.3171387 C107.261716,26.9348175 106.837404,27.4208967 106.525879,27.7753906 C105.924313,28.4414096 105.365725,28.7744141 104.850098,28.7744141 C104.291501,28.7744141 104.012207,28.3769571 104.012207,27.5820313 C104.012207,27.259764 104.221678,26.6823772 104.640625,25.8498535 C105.059572,25.0173298 105.655758,23.9565494 106.429199,22.6674805 C106.493653,22.5815425 106.525879,22.4472665 106.525879,22.2646484 C106.525879,22.0498036 106.418458,21.9423828 106.203613,21.9423828 C105.967284,21.9423828 105.626223,22.165281 105.18042,22.611084 C104.734617,23.056887 103.872565,23.9887624 102.594238,25.4067383 C102.239744,25.8042012 101.839602,26.3225066 101.393799,26.9616699 C100.947996,27.6008333 100.628419,28.027831 100.435059,28.2426758 C100.241698,28.4575206 100.048341,28.5649414 99.8549805,28.5649414 C99.4682598,28.5649414 99.1084001,28.2211948 98.7753906,27.5336914 C98.4423811,26.846188 98.2758789,26.045903 98.2758789,25.1328125 C98.2758789,24.4667935 98.3859852,23.8920923 98.6062012,23.4086914 C98.8264171,22.9252906 99.1674782,22.3237341 99.6293945,21.6040039 C100.349125,20.5620065 100.937254,19.8181175 101.393799,19.3723145 C101.850344,18.9265114 102.331052,18.7036133 102.835938,18.7036133 C103.147462,18.7036133 103.410643,18.7653802 103.625488,18.888916 C103.840333,19.0124518 103.947754,19.1816396 103.947754,19.3964844 C103.947754,19.6220714 103.751711,19.9926732 103.359619,20.5083008 C102.967527,21.0239284 102.470706,21.5556613 101.869141,22.1035156 C101.546873,22.4150406 101.240724,22.79907 100.950684,23.2556152 C100.660643,23.7121605 100.515625,24.0424794 100.515625,24.246582 C100.515625,24.5366225 100.628417,24.6816406 100.854004,24.6816406 C101.036622,24.6816406 101.498531,24.3056678 102.239746,23.5537109 C102.980961,22.8017541 103.794673,21.9826704 104.680908,21.0964355 C105.567143,20.2102006 106.388912,19.4743682 107.14624,18.888916 C107.903568,18.3034639 108.545408,18.0107422 109.071777,18.0107422 C109.394045,18.0107422 109.659911,18.1315906 109.869385,18.373291 C110.078858,18.6149914 110.183594,18.9130842 110.183594,19.2675781 C110.183594,19.5039074 110.022463,19.9309051 109.700195,20.548584 C109.377928,21.1662629 108.907962,21.9289505 108.290283,22.8366699 C107.672604,23.7443893 106.875005,24.842767 105.897461,26.1318359 Z M123.348145,16.7216797 C123.079589,16.7216797 122.824464,16.6196299 122.582764,16.4155273 C122.341063,16.2114248 122.220215,15.9536148 122.220215,15.6420898 C122.220215,15.1694312 122.445799,14.6430693 122.896973,14.0629883 C123.348147,13.4829073 123.815427,13.1928711 124.298828,13.1928711 C124.621095,13.1928711 124.889647,13.2922353 125.104492,13.4909668 C125.319337,13.6896983 125.426758,13.9770489 125.426758,14.3530273 C125.426758,14.8149437 125.206545,15.3251925 124.766113,15.8837891 C124.325681,16.4423856 123.85303,16.7216797 123.348145,16.7216797 Z M124.443848,23.9243164 L124.443848,25.1005859 C123.40185,26.4433661 122.429692,27.4558071 121.527344,28.1379395 C120.624995,28.8200718 119.856937,29.1611328 119.223145,29.1611328 C118.342281,29.1611328 117.687014,28.6992234 117.257324,27.7753906 C116.827635,26.8515579 116.612793,25.8418024 116.612793,24.7460938 C116.612793,24.3271463 116.655761,23.9270039 116.741699,23.5456543 C116.827637,23.1643047 116.929687,22.8500989 117.047852,22.6030273 C117.166016,22.3559558 117.386229,21.9692409 117.708496,21.4428711 C119.233894,19.0688358 120.630365,17.8818359 121.897949,17.8818359 C122.553226,17.8818359 122.880859,18.1342748 122.880859,18.6391602 C122.880859,18.9829119 122.668703,19.5200159 122.244385,20.2504883 C121.820066,20.9809607 121.441408,21.5019516 121.108398,21.8134766 C120.173823,22.7158248 119.56421,23.3442365 119.279541,23.6987305 C118.994872,24.0532244 118.852539,24.4560524 118.852539,24.9072266 C118.852539,25.2939472 118.997557,25.6162096 119.287598,25.8740234 C119.577638,26.1318372 119.953611,26.2607422 120.415527,26.2607422 C120.920413,26.2607422 121.476315,26.0754413 122.083252,25.704834 C122.690189,25.3342267 123.477046,24.7407267 124.443848,23.9243164 Z M129.95459,15.5615234 L130.647461,15.5615234 C131.2168,14.5410105 131.73242,13.8186056 132.194336,13.3942871 C132.656252,12.9699686 133.182614,12.7578125 133.773438,12.7578125 C134.364261,12.7578125 134.659668,12.8920885 134.659668,13.1606445 C134.659668,13.2895514 134.428713,13.638669 133.966797,14.2080078 C133.504881,14.7773466 133.155763,15.2553692 132.919434,15.6420898 C133.28467,15.6850588 133.609618,15.7226561 133.894287,15.7548828 C134.178957,15.7871095 134.401855,15.8139647 134.562988,15.8354492 C133.950681,16.9741268 133.182622,18.1396425 132.258789,19.3320313 C131.958006,19.3105468 131.705567,19.2917481 131.501465,19.2756348 C131.297362,19.2595214 131.090577,19.2434083 130.881104,19.2272949 C130.67163,19.2111816 130.416505,19.1923829 130.115723,19.1708984 C129.535642,20.1054734 129.049563,20.9406701 128.657471,21.6765137 C128.265379,22.4123572 127.964601,23.0864227 127.755127,23.6987305 C127.545653,24.3110382 127.440918,24.8911105 127.440918,25.4389648 C127.440918,26.1801795 127.736325,26.5507813 128.327148,26.5507813 C128.735354,26.5507813 129.269772,26.3332541 129.93042,25.8981934 C130.591068,25.4631326 131.474604,24.7944381 132.581055,23.8920898 L132.581055,24.9716797 C129.68065,28.1191564 127.537605,29.6928711 126.151855,29.6928711 C125.668455,29.6928711 125.279054,29.5048847 124.983643,29.1289063 C124.688231,28.7529278 124.540527,28.2695342 124.540527,27.6787109 C124.540527,27.281248 124.623778,26.8085965 124.790283,26.2607422 C124.956788,25.7128879 125.254881,24.8857477 125.68457,23.7792969 C125.534179,23.9082038 125.391846,24.0344232 125.257568,24.157959 C125.12329,24.2814948 124.999756,24.3942866 124.886963,24.4963379 C124.774169,24.5983892 124.653321,24.70581 124.524414,24.8186035 C124.395507,24.931397 124.266602,25.0468744 124.137695,25.1650391 L124.137695,24.0532227 C125.265631,23.1079054 126.629875,21.4482541 128.230469,19.0742188 C128.069335,19.0634765 127.918946,19.0554199 127.779297,19.0500488 C127.639648,19.0446777 127.473145,19.0419922 127.279785,19.0419922 C126.645993,19.0419922 126.173341,19.0849605 125.861816,19.1708984 C125.73291,19.2031252 125.612061,19.2380369 125.499268,19.2756348 C125.386474,19.3132326 125.308594,19.3320313 125.265625,19.3320313 C125.222656,19.3320313 125.201172,19.299805 125.201172,19.2353516 C125.201172,18.8808576 125.421385,18.3491246 125.861816,17.6401367 C126.21631,17.0385712 126.552,16.5927749 126.868896,16.3027344 C127.185793,16.0126939 127.572507,15.8166509 128.029053,15.7145996 C128.485598,15.6125483 129.127437,15.5615234 129.95459,15.5615234 Z M144.601562,23.9243164 L144.601562,24.9394531 C143.666988,25.8955126 142.858646,26.6769989 142.176514,27.2839355 C141.494381,27.8908722 140.898196,28.3500961 140.387939,28.6616211 C139.877683,28.9731461 139.445314,29.1289063 139.09082,29.1289063 C138.252925,29.1289063 137.833984,28.6347706 137.833984,27.6464844 C137.833984,26.8515585 138.09448,25.9304252 138.615479,24.8830566 C139.136477,23.8356881 139.885737,22.6030344 140.863281,21.1850586 C140.37988,21.4536146 139.923342,21.7624494 139.493652,22.1115723 C139.063963,22.4606951 138.682619,22.8259258 138.349609,23.2072754 C138.0166,23.588625 137.737306,23.9135729 137.511719,24.1821289 C136.813473,24.9663125 136.142093,25.769283 135.497559,26.5910645 C134.853024,27.4128459 134.41797,27.9472644 134.192383,28.1943359 C133.966796,28.4414075 133.751954,28.5649414 133.547852,28.5649414 C132.709957,28.5649414 132.291016,27.5337017 132.291016,25.4711914 C132.291016,24.7944302 132.393065,24.0478556 132.597168,23.2314453 C132.801271,22.415035 133.349117,21.3354559 134.240723,19.9926758 C136.120615,17.1782086 137.729241,14.8767179 139.06665,13.0881348 C140.404059,11.2995516 141.513179,9.94604951 142.394043,9.02758789 C143.274907,8.10912627 143.865721,7.66064442 144.166504,7.68212891 C144.542482,7.71435563 144.845946,7.78955019 145.076904,7.90771484 C145.307862,8.0258795 145.42334,8.1601555 145.42334,8.31054688 C145.42334,8.57910291 145.238039,9.02221371 144.867432,9.63989258 C144.496824,10.2575714 143.860356,11.2216731 142.958008,12.5322266 C141.980464,13.9179757 141.2876,14.8928194 140.879395,15.4567871 C140.471189,16.0207548 139.861576,16.8210397 139.050537,17.857666 C138.239498,18.8942923 137.498294,19.8181112 136.826904,20.6291504 C136.155514,21.4401896 135.390141,22.3183546 134.530762,23.2636719 L134.530762,25.1972656 C135.970222,23.5966717 137.216303,22.2861379 138.269043,21.265625 C139.321783,20.2451121 140.213375,19.4743678 140.943848,18.9533691 C141.67432,18.4323704 142.211424,18.171875 142.555176,18.171875 C142.877443,18.171875 143.178221,18.3625469 143.45752,18.7438965 C143.736818,19.125246 143.876465,19.4394519 143.876465,19.6865234 C143.876465,19.7939458 143.822754,19.9282219 143.715332,20.0893555 C142.941891,21.0131882 142.326907,21.7785614 141.870361,22.385498 C141.413816,22.9924347 141.062013,23.5349097 140.814941,24.0129395 C140.56787,24.4909692 140.444336,24.9018538 140.444336,25.2456055 C140.444336,25.7504908 140.686033,26.0029297 141.169434,26.0029297 C141.685061,26.0029297 142.829093,25.3100655 144.601562,23.9243164 Z" id="David-Smith"></path>
            </g>
        </g>
    </g>
</svg>