<?xml version="1.0" encoding="UTF-8"?>
<svg width="121px" height="17px" viewBox="0 0 121 17" version="1.1" xmlns="http://www.w3.org/2000/svg" xmlns:xlink="http://www.w3.org/1999/xlink">
    <!-- Generator: Sketch 41.2 (35397) - http://www.bohemiancoding.com/sketch -->
    <title>sep-white</title>
    <desc>Created with Sketch.</desc>
    <defs></defs>
    <g id="Assets" stroke="none" stroke-width="1" fill="none" fill-rule="evenodd">
        <g id="Elements" transform="translate(-660.000000, -484.000000)" fill="#FFFFFF">
            <path d="M712.751739,496 L690,496 L690,497 L713.287553,497 C714.789478,499.402153 717.458141,501 720.5,501 C723.541859,501 726.210522,499.402153 727.712447,497 L751,497 L751,496 L728.248261,496 C728.666203,495.076219 728.923797,494.064385 728.985538,493 L781,493 L781,492 L728.985538,492 C728.923797,490.935615 728.666203,489.923781 728.248261,489 L751,489 L751,488 L727.712447,488 C726.210522,485.597847 723.541859,484 720.5,484 C717.458141,484 714.789478,485.597847 713.287553,488 L690,488 L690,489 L712.751739,489 C712.333797,489.923781 712.076203,490.935615 712.014462,492 L660,492 L660,493 L712.014462,493 C712.076203,494.064385 712.333797,495.076219 712.751739,496 Z M720.5,500 C724.642136,500 728,496.642136 728,492.5 C728,488.357864 724.642136,485 720.5,485 C716.357864,485 713,488.357864 713,492.5 C713,496.642136 716.357864,500 720.5,500 Z M720.5,496 C722.432997,496 724,494.432997 724,492.5 C724,490.567003 722.432997,489 720.5,489 C718.567003,489 717,490.567003 717,492.5 C717,494.432997 718.567003,496 720.5,496 Z" id="sep-white"></path>
        </g>
    </g>
</svg>